<svg xmlns="http://www.w3.org/2000/svg" xmlns:xlink="http://www.w3.org/1999/xlink" width="55" height="55" viewBox="0 0 55 55"><defs><style>.a{stroke:#fff;stroke-width:2px;}.b{fill:#fff;}.c{stroke:none;}.d{fill:none;}.e{filter:url(#a);}</style><filter id="a" x="0" y="0" width="55" height="55" filterUnits="userSpaceOnUse"><feOffset dy="3" input="SourceAlpha"/><feGaussianBlur stdDeviation="1" result="b"/><feFlood flood-opacity="0.161"/><feComposite operator="in" in2="b"/><feComposite in="SourceGraphic"/></filter></defs><g transform="translate(3)"><g class="e" transform="matrix(1, 0, 0, 1, -3, 0)"><g class="a" transform="translate(3)"><circle class="c" cx="24.5" cy="24.5" r="24.5"/><circle class="d" cx="24.5" cy="24.5" r="23.5"/></g></g><path class="b" d="M10.833,12.187A6.094,6.094,0,1,0,4.74,6.094,6.1,6.1,0,0,0,10.833,12.187Zm5.417,1.354H13.918a7.366,7.366,0,0,1-6.17,0H5.417A5.416,5.416,0,0,0,0,18.958v.677a2.032,2.032,0,0,0,2.031,2.031h17.6a2.032,2.032,0,0,0,2.031-2.031v-.677A5.416,5.416,0,0,0,16.25,13.542Z" transform="translate(13.343 12.234)"/></g></svg>