<svg xmlns="http://www.w3.org/2000/svg" xmlns:xlink="http://www.w3.org/1999/xlink" width="55" height="55" viewBox="0 0 55 55"><defs><style>.a{stroke:#fff;stroke-width:2px;}.b{fill:#fff;}.c{stroke:none;}.d{fill:none;}.e{filter:url(#a);}</style><filter id="a" x="0" y="0" width="55" height="55" filterUnits="userSpaceOnUse"><feOffset dy="3" input="SourceAlpha"/><feGaussianBlur stdDeviation="1" result="b"/><feFlood flood-opacity="0.161"/><feComposite operator="in" in2="b"/><feComposite in="SourceGraphic"/></filter></defs><g transform="translate(3)"><g class="e" transform="matrix(1, 0, 0, 1, -3, 0)"><g class="a" transform="translate(3)"><circle class="c" cx="24.5" cy="24.5" r="24.5"/><circle class="d" cx="24.5" cy="24.5" r="23.5"/></g></g><path class="b" d="M5.058,18.887c-.453-.453-.217-.325-1.308-.617a3.758,3.758,0,0,1-1.324-.694L.062,23.369a.833.833,0,0,0,.8,1.147l2.744-.1L5.5,26.406a.833.833,0,0,0,1.377-.258L9.585,19.5a3.738,3.738,0,0,1-4.527-.614Zm14.879,4.483-2.363-5.794a3.749,3.749,0,0,1-1.324.694c-1.1.294-.857.166-1.308.617a3.738,3.738,0,0,1-4.528.614l2.711,6.647a.833.833,0,0,0,1.377.258l1.888-1.994,2.744.1a.834.834,0,0,0,.8-1.147ZM13.7,17.708c.8-.81.887-.74,2.02-1.049A2.117,2.117,0,0,0,17.2,15.15a3.347,3.347,0,0,1,1.352-2.383,2.161,2.161,0,0,0,.543-2.061,3.387,3.387,0,0,1,0-2.752,2.161,2.161,0,0,0-.543-2.061A3.348,3.348,0,0,1,17.2,3.51,2.117,2.117,0,0,0,15.718,2,3.265,3.265,0,0,1,13.377.625,2.072,2.072,0,0,0,11.351.072a3.223,3.223,0,0,1-2.7,0A2.071,2.071,0,0,0,6.623.625,3.263,3.263,0,0,1,4.282,2,2.117,2.117,0,0,0,2.8,3.51,3.346,3.346,0,0,1,1.448,5.892,2.159,2.159,0,0,0,.905,7.954a3.386,3.386,0,0,1,0,2.751,2.162,2.162,0,0,0,.543,2.062A3.347,3.347,0,0,1,2.8,15.15a2.117,2.117,0,0,0,1.483,1.509c1.166.318,1.253.268,2.02,1.049a2.07,2.07,0,0,0,2.591.3,2.066,2.066,0,0,1,2.215,0A2.069,2.069,0,0,0,13.7,17.708ZM5.086,9.164a4.914,4.914,0,1,1,4.913,5,4.958,4.958,0,0,1-4.913-5Z" transform="translate(14.7 11.228)"/></g></svg>