<svg xmlns="http://www.w3.org/2000/svg" xmlns:xlink="http://www.w3.org/1999/xlink" width="55" height="55" viewBox="0 0 55 55"><defs><style>.a{stroke:#fff;stroke-width:2px;}.b{fill:#fff;}.c{stroke:none;}.d{fill:none;}.e{filter:url(#a);}</style><filter id="a" x="0" y="0" width="55" height="55" filterUnits="userSpaceOnUse"><feOffset dy="3" input="SourceAlpha"/><feGaussianBlur stdDeviation="1" result="b"/><feFlood flood-opacity="0.161"/><feComposite operator="in" in2="b"/><feComposite in="SourceGraphic"/></filter></defs><g transform="translate(3)"><g class="e" transform="matrix(1, 0, 0, 1, -3, 0)"><g class="a" transform="translate(3)"><circle class="c" cx="24.5" cy="24.5" r="24.5"/><circle class="d" cx="24.5" cy="24.5" r="23.5"/></g></g><g transform="translate(13.375 12.483)"><path class="b" d="M11,25.143A3.142,3.142,0,0,0,14.141,22H7.859A3.142,3.142,0,0,0,11,25.143Zm10.577-7.352c-.949-1.019-2.724-2.553-2.724-7.577A7.755,7.755,0,0,0,12.57,2.595V1.571a1.57,1.57,0,1,0-3.141,0V2.595a7.755,7.755,0,0,0-6.283,7.619c0,5.024-1.775,6.557-2.724,7.577A1.534,1.534,0,0,0,0,18.857a1.573,1.573,0,0,0,1.576,1.571H20.424A1.572,1.572,0,0,0,22,18.857a1.533,1.533,0,0,0-.423-1.066Z" transform="translate(0 0)"/></g></g></svg>