<svg xmlns="http://www.w3.org/2000/svg" width="19.312" height="19.31" viewBox="0 0 19.312 19.31"><defs><style>.a{fill:#ff5749;}</style></defs><path class="a" d="M23.244,19.623a16.221,16.221,0,0,0-3.388-2.267c-1.016-.488-1.388-.478-2.106.04-.6.432-.985.835-1.674.684a9.987,9.987,0,0,1-3.363-2.489,9.915,9.915,0,0,1-2.489-3.363c-.146-.694.256-1.076.684-1.674.518-.719.533-1.091.04-2.106A15.9,15.9,0,0,0,8.68,5.059c-.739-.739-.9-.578-1.312-.432a7.467,7.467,0,0,0-1.2.638A3.625,3.625,0,0,0,4.723,6.788c-.287.618-.618,1.77,1.071,4.776a26.65,26.65,0,0,0,4.686,6.249h0l.005.005.005.005h0a26.754,26.754,0,0,0,6.249,4.686c3.006,1.689,4.158,1.357,4.776,1.071a3.563,3.563,0,0,0,1.523-1.443,7.466,7.466,0,0,0,.638-1.2C23.822,20.528,23.988,20.362,23.244,19.623Z" transform="translate(-4.49 -4.503)"/></svg>