<svg xmlns="http://www.w3.org/2000/svg" xmlns:xlink="http://www.w3.org/1999/xlink" width="55.077" height="55" viewBox="0 0 55.077 55"><defs><style>.a{fill:#ffd632;}.b{fill:#1a1a19;}.c{fill:#f60;}.d{fill:#fc0;}.e{fill:#d40000;}.f,.h,.j{fill:#fff;}.f,.h{opacity:0.454;}.f{isolation:isolate;}.g{fill:none;}.i,.j{stroke:none;}.k{filter:url(#a);}</style><filter id="a" x="0" y="0" width="55.077" height="55" filterUnits="userSpaceOnUse"><feOffset dy="3" input="SourceAlpha"/><feGaussianBlur stdDeviation="1" result="b"/><feFlood flood-opacity="0.161"/><feComposite operator="in" in2="b"/><feComposite in="SourceGraphic"/></filter></defs><g transform="translate(-161.952 -37)"><g transform="translate(1 -691)"><g transform="translate(1.952 712)"><g class="k" transform="matrix(1, 0, 0, 1, 159, 16)"><g class="a" transform="translate(3)"><path class="i" d="M 24.53866767883301 48.0001220703125 C 21.36032676696777 48.0001220703125 18.27761840820312 47.37885284423828 15.37614727020264 46.15356063842773 C 12.5732479095459 44.96990203857422 10.05581760406494 43.27521133422852 7.893757820129395 41.11656188964844 C 5.731807708740234 38.95801162719727 4.034557819366455 36.44473266601562 2.849147796630859 33.64652252197266 C 1.622147679328918 30.7501106262207 0.9999976754188538 27.67280197143555 0.9999976754188538 24.50006103515625 C 0.9999976754188538 21.32733154296875 1.622147679328918 18.2500114440918 2.849147796630859 15.35360145568848 C 4.034557819366455 12.55539131164551 5.731807708740234 10.04211139678955 7.893757820129395 7.883561134338379 C 10.05581760406494 5.724911212921143 12.5732479095459 4.030220985412598 15.37614727020264 2.846560955047607 C 18.27761840820312 1.621271014213562 21.36032676696777 1.000001072883606 24.53866767883301 1.000001072883606 C 27.71700859069824 1.000001072883606 30.79971694946289 1.621271014213562 33.70118713378906 2.846560955047607 C 36.50408935546875 4.030220985412598 39.02151870727539 5.724911212921143 41.18357849121094 7.883561134338379 C 43.34552764892578 10.04211139678955 45.04277801513672 12.55539131164551 46.22818756103516 15.35360145568848 C 47.4551887512207 18.2500114440918 48.07733917236328 21.32733154296875 48.07733917236328 24.50006103515625 C 48.07733917236328 27.67280197143555 47.4551887512207 30.7501106262207 46.22818756103516 33.64652252197266 C 45.04277801513672 36.44473266601562 43.34552764892578 38.95801162719727 41.18357849121094 41.11656188964844 C 39.02151870727539 43.27521133422852 36.50408935546875 44.96990203857422 33.70118713378906 46.15356063842773 C 30.79971694946289 47.37885284423828 27.71700859069824 48.0001220703125 24.53866767883301 48.0001220703125 Z"/><path class="j" d="M 24.53866767883301 2 C 21.49469757080078 2 18.54286766052246 2.594772338867188 15.76517868041992 3.767780303955078 C 13.08143615722656 4.901119232177734 10.67082595825195 6.523960113525391 8.600307464599609 8.591232299804688 C 6.529998779296875 10.65827941894531 4.904827117919922 13.06471252441406 3.769939422607422 15.74368286132812 C 2.595489501953125 18.51601028442383 1.999996185302734 21.46208190917969 1.999996185302734 24.50006103515625 C 1.999996185302734 27.53804016113281 2.595489501953125 30.48412132263184 3.769939422607422 33.25645065307617 C 4.904827117919922 35.93542098999023 6.529998779296875 38.34185028076172 8.600307464599609 40.40890121459961 C 10.67082595825195 42.47616195678711 13.08143615722656 44.0989990234375 15.76517868041992 45.23234176635742 C 18.54286766052246 46.40534973144531 21.49469757080078 47.0001220703125 24.53866767883301 47.0001220703125 C 27.58263778686523 47.0001220703125 30.53446769714355 46.40534973144531 33.31215667724609 45.23234176635742 C 35.99589538574219 44.0989990234375 38.40650939941406 42.47616195678711 40.47702789306641 40.40890121459961 C 42.54733657836914 38.34185028076172 44.17250823974609 35.93542098999023 45.30739593505859 33.25645065307617 C 46.48184967041016 30.48412132263184 47.07733917236328 27.53804016113281 47.07733917236328 24.50006103515625 C 47.07733917236328 21.46208190917969 46.48184967041016 18.51601028442383 45.30739593505859 15.74368286132812 C 44.17250823974609 13.06471252441406 42.54733657836914 10.65827941894531 40.47702789306641 8.591232299804688 C 38.40650939941406 6.523960113525391 35.99589538574219 4.901119232177734 33.31215667724609 3.767780303955078 C 30.53446769714355 2.594772338867188 27.58263778686523 2 24.53866767883301 2 M 24.53866767883301 0 C 38.09099578857422 0 49.07733917236328 10.96905136108398 49.07733917236328 24.50006103515625 C 49.07733917236328 38.03108215332031 38.09099578857422 49.0001220703125 24.53866767883301 49.0001220703125 C 10.9863395690918 49.0001220703125 -3.814697265625e-06 38.03108215332031 -3.814697265625e-06 24.50006103515625 C -3.814697265625e-06 10.96905136108398 10.9863395690918 0 24.53866767883301 0 Z"/></g></g></g></g><g transform="translate(13 23)"><g transform="translate(160.806 17.614)"><g transform="translate(11.741 0)"><g transform="translate(0 0.264)"><path class="b" d="M400.7,392.724l-.044.12c-.09.244-.183.5-.277.755q-.163.45-.332.927-.218.619-.44,1.276-.169.5-.335,1.02c-.179.557-.354,1.128-.521,1.707a41.847,41.847,0,0,0-.986,4.124c-.147.815-.259,1.624-.325,2.41q-.036.435-.053.86a12.966,12.966,0,0,0,.192,2.972,8.274,8.274,0,0,0,.274,1.055,7.961,7.961,0,0,0,1.141,2.139,14.892,14.892,0,0,0,2.11,2.281q.142.128.289.254c.536.464,1.1.912,1.69,1.345,1.05.775,2.156,1.5,3.227,2.167.614.384,1.217.749,1.791,1.095.347.209.683.411,1.005.606.452.273.876.533,1.262.778l.241.155c2.566,1.61,2.1,2.964-1.091,2.318l-.162-.034q-.628-.136-1.277-.3-.7-.175-1.422-.38c-.6-.172-1.213-.358-1.824-.56a40.72,40.72,0,0,1-4.417-1.741c-.819-.382-1.611-.79-2.361-1.224q-.479-.277-.933-.567a17.28,17.28,0,0,1-2.75-2.135,8.5,8.5,0,0,1-2.173-3.184,9.309,9.309,0,0,1-.387-3.759,20.4,20.4,0,0,1,.659-3.7q.127-.48.275-.967c.281-.93.616-1.88.993-2.834a49.3,49.3,0,0,1,2.075-4.537q.4-.766.812-1.512.271-.488.55-.965.34-.584.688-1.149h0q.261-.424.524-.834.176-.275.353-.543.085-.129.167-.247C400.521,389.619,401.58,390.325,400.7,392.724Z" transform="translate(-391.773 -390.514)"/><path class="c" d="M415.995,448.324q-.2.41-.4.823l3.439.988q.112-.437.232-.87Z" transform="translate(-412.452 -440.688)"/><path class="d" d="M412.25,456.446q-.192.414-.375.829l3.654,1.05q.1-.439.21-.877Z" transform="translate(-409.22 -447.738)"/><path class="e" d="M408.7,464.68q-.182.418-.353.836l3.876,1.114q.085-.441.183-.884Z" transform="translate(-406.154 -454.884)"/><path class="f" d="M414.458,442.147a66.483,66.483,0,0,1-8.406-4.3,21.16,21.16,0,0,1-3.327-2.367,9.3,9.3,0,0,1-2.417-3.316,11.538,11.538,0,0,1-.355-6.472,40.4,40.4,0,0,1,2.711-7.944q.929-2.206,1.863-4.409-1.213,2.059-2.325,4.174c-1.824,3.469-3.474,7.185-3.58,11.008a10.344,10.344,0,0,0,.63,4.052,9.5,9.5,0,0,0,2.636,3.617,19.207,19.207,0,0,0,3.718,2.453A43.016,43.016,0,0,0,414.458,442.147Z" transform="translate(-397.714 -410.326)"/></g><g transform="translate(0.66 0)"><path class="g" d="M400.7,392.724l-.044.12c-.09.244-.183.5-.277.755q-.163.45-.332.927-.218.619-.44,1.276-.169.5-.335,1.02c-.179.557-.354,1.128-.521,1.707a41.847,41.847,0,0,0-.986,4.124c-.147.815-.259,1.624-.325,2.41q-.036.435-.053.86a12.966,12.966,0,0,0,.192,2.972,8.274,8.274,0,0,0,.274,1.055,7.961,7.961,0,0,0,1.141,2.139,14.892,14.892,0,0,0,2.11,2.281q.142.128.289.254c.536.464,1.1.912,1.69,1.345,1.05.775,2.156,1.5,3.227,2.167.614.384,1.217.749,1.791,1.095.347.209.683.411,1.005.606.452.273.876.533,1.262.778l.241.155c2.566,1.61,2.1,2.964-1.091,2.318l-.162-.034q-.628-.136-1.277-.3-.7-.175-1.422-.38c-.6-.172-1.213-.358-1.824-.56a40.72,40.72,0,0,1-4.417-1.741c-.819-.382-1.611-.79-2.361-1.224q-.479-.277-.933-.567a17.28,17.28,0,0,1-2.75-2.135,8.5,8.5,0,0,1-2.173-3.184,9.309,9.309,0,0,1-.387-3.759,20.4,20.4,0,0,1,.659-3.7q.127-.48.275-.967c.281-.93.616-1.88.993-2.834a49.3,49.3,0,0,1,2.075-4.537q.4-.766.812-1.512.271-.488.55-.965.34-.584.688-1.149h0q.261-.424.524-.834.176-.275.353-.543.085-.129.167-.247C400.521,389.619,401.58,390.325,400.7,392.724Z" transform="translate(-391.773 -390.514)"/></g></g><g transform="translate(0 5.26)"><g transform="translate(0 0)"><rect class="b" width="3.997" height="38.288" rx="1.998" transform="matrix(0.918, -0.398, 0.398, 0.918, 0, 1.589)"/><path class="h" d="M.48,0a.48.48,0,0,1,.48.48v33.5a.48.48,0,0,1-.959,0V.48A.48.48,0,0,1,.48,0Z" transform="matrix(0.918, -0.398, 0.398, 0.918, 1.595, 3.172)"/></g></g><g transform="translate(0.822 5.629)"><path class="g" d="M2.139,0A1.873,1.873,0,0,1,4.018,1.9L3.786,34.82a1.939,1.939,0,0,1-1.906,1.932A1.873,1.873,0,0,1,0,34.848L.233,1.932A1.939,1.939,0,0,1,2.139,0Z" transform="matrix(0.918, -0.398, 0.398, 0.918, 0, 1.597)"/></g></g></g></g></svg>